Coordinates
version=1
nRows=22
nColumns=24
inDegrees=yes

Units are S.I. units (second, meters, Newtons, ...)
Angles are in degrees.

endheader
time	pelvis_tilt	pelvis_list	pelvis_rotation	pelvis_tx	pelvis_ty	pelvis_tz	hip_flexion_r	hip_adduction_r	hip_rotation_r	knee_angle_r	ankle_angle_r	subtalar_angle_r	mtp_angle_r	hip_flexion_l	hip_adduction_l	hip_rotation_l	knee_angle_l	ankle_angle_l	subtalar_angle_l	mtp_angle_l	lumbar_extension	lumbar_bending	lumbar_rotation
      2.40000000	      9.63707648	      5.22302724	     -2.68410236	      0.70798453	      0.93580902	     -0.00652455	    -13.37494172	     -7.46027773	     -2.07180617	    -47.34513539	      7.31488424	     -2.09227615	     53.99938224	      5.94343927	      8.44662630	     -9.56446869	    -12.70130725	      7.15848933	    -14.01197635	     24.01515605	    -15.82293384	     -8.04474146	      2.82871361
      2.40500000	      9.38892231	      5.29826932	     -2.83566418	      0.71328254	      0.93589128	     -0.00705280	    -12.03054694	     -7.65584670	     -1.57959566	    -49.29355126	      6.12812345	     -2.13867161	     53.84983877	      5.99947408	      8.53323072	     -9.81016713	    -12.98009390	      7.76431565	    -13.67589411	     23.88227005	    -15.57178913	     -8.16542888	      2.95990480
      2.41000000	      9.10858502	      5.34850713	     -2.91697077	      0.71856241	      0.93595198	     -0.00762515	    -10.68283424	     -7.78202971	     -1.15858491	    -51.13796423	      5.05090730	     -2.30755218	     53.55203899	      6.08441677	      8.59474447	     -9.99696230	    -13.25810501	      8.39385118	    -13.34869768	     23.49070612	    -15.29503552	     -8.24098252	      2.96306055
      2.41500000	      8.90189918	      5.37821653	     -3.01975820	      0.72378250	      0.93612793	     -0.00813831	     -9.42563400	     -7.87972823	     -0.75552007	    -52.88649102	      4.15778344	     -2.50147305	     53.09273834	      6.07701614	      8.63352476	    -10.20560263	    -13.51203867	      9.00036677	    -12.99860287	     22.96703093	    -15.10283193	     -8.30209843	      3.05356515
      2.42000000	      8.74693938	      5.41303596	     -3.08232513	      0.72906138	      0.93640554	     -0.00867313	     -8.27161264	     -7.96187729	     -0.42923278	    -54.52805515	      3.59088687	     -2.65827027	     50.93319120	      5.96951034	      8.68826077	    -10.37619972	    -13.70576034	      9.83558207	    -12.42018520	     20.29147607	    -14.96730979	     -8.35841341	      3.03395426
      2.42500000	      8.61549759	      5.40848931	     -3.18022293	      0.73431806	      0.93675509	     -0.00913015	     -7.15311018	     -7.99858366	     -0.08765949	    -56.04930677	      3.08099692	     -2.90095812	     50.69211992	      5.81449708	      8.69546491	    -10.61273931	    -13.83730729	     10.36777824	    -12.05790492	     20.13949220	    -14.85300515	     -8.37946693	      3.07720141
      2.43000000	      8.48380934	      5.38615046	     -3.22422470	      0.73952700	      0.93712846	     -0.00964272	     -6.06139128	     -7.99715819	      0.16705176	    -57.49852199	      2.93434542	     -3.11136663	     48.72180607	      5.65277852	      8.69288935	    -10.75924152	    -13.96617473	     11.00706754	    -11.62473332	     18.66304911	    -14.75168873	     -8.36658223	      3.07305601
      2.43500000	      8.38977504	      5.34135974	     -3.32266116	      0.74472874	      0.93758498	     -0.01004725	     -5.01881445	     -7.96288267	      0.46539248	    -58.83123407	      2.84054034	     -3.45061378	     48.42596403	      5.42045575	      8.66485500	    -10.95365224	    -14.02481027	     11.48713994	    -11.30780437	     18.56185118	    -14.68282404	     -8.34295327	      3.13790163
      2.44000000	      8.27724873	      5.29005344	     -3.34513344	      0.74989837	      0.93803412	     -0.01054752	     -3.98743103	     -7.91225295	      0.64329398	    -60.09845271	      3.11110934	     -3.67088922	     46.06424152	      5.20703163	      8.63846333	    -11.05353611	    -14.09279507	     12.06301131	    -10.90895231	     17.28289772	    -14.60807458	     -8.29105753	      3.09919741
      2.44500000	      8.18337892	      5.22769961	     -3.37202965	      0.75503275	      0.93851177	     -0.01102368	     -2.98723179	     -7.84802111	      0.79183378	    -61.26585316	      3.39692182	     -4.04356684	     45.19710041	      4.97115924	      8.59857214	    -11.17554961	    -14.15087198	     12.56861937	    -10.54464225	     16.83320704	    -14.55566748	     -8.22693503	      3.07066185
      2.45000000	      8.06554664	      5.09811637	     -3.43041427	      0.76013319	      0.93901552	     -0.01140725	     -1.97692663	     -7.68139474	      0.98502276	    -62.32511525	      3.84340806	     -4.49857391	     44.50670699	      4.73809622	      8.48599986	    -11.29663731	    -14.15903188	     12.97512529	    -10.29087345	     16.59798463	    -14.47512218	     -8.09502109	      3.10545451
      2.45500000	      8.02843196	      5.02023789	     -3.46011873	      0.76526545	      0.93962783	     -0.01188030	     -1.08107750	     -7.59224887	      1.07640883	    -63.30852336	      4.50456859	     -4.87057169	     42.06164813	      4.37257570	      8.45845331	    -11.30964500	    -14.07355211	     13.38980197	    -10.07086335	     15.60881642	    -14.48352982	     -8.00937598	      3.10308088
      2.46000000	      7.93162918	      4.87626768	     -3.47493111	      0.77031079	      0.94018402	     -0.01232129	     -0.13214024	     -7.40803328	      1.15113904	    -64.18152823	      5.03669895	     -5.48997383	     41.68750215	      4.10251807	      8.34445065	    -11.35426393	    -14.05146694	     13.75759704	     -9.86807489	     15.51045588	    -14.43850321	     -7.84557485	      3.09328988
      2.46500000	      7.77763420	      4.77610943	     -3.45697334	      0.77535099	      0.94063407	     -0.01279962	      0.87610395	     -7.27770179	      1.15564423	    -65.01800370	      5.72865590	     -6.01904845	     40.20268922	      3.89009838	      8.27667207	    -11.34464198	    -14.01594518	     14.14350012	     -9.57786670	     15.06011680	    -14.32780408	     -7.72099499	      3.04293413
      2.47000000	      7.81453865	      4.63626156	     -3.49168760	      0.78041573	      0.94142930	     -0.01321154	      1.63248760	     -7.10358171	      1.17881058	    -65.67508761	      6.27115303	     -6.82794719	     39.96326209	      3.40709304	      8.20129718	    -11.30326386	    -13.84416503	     14.33275029	     -9.62832009	     15.00181702	    -14.42803292	     -7.56704600	      3.04658690
      2.47500000	      7.67969373	      4.49270834	     -3.49463202	      0.78544627	      0.94192900	     -0.01365424	      2.59033607	     -6.91874540	      1.16517901	    -66.33945455	      7.06566869	     -7.30485733	     37.14694907	      3.14312163	      8.09826609	    -11.28327558	    -13.74827182	     14.72229176	     -9.43130749	     14.21092940	    -14.33554694	     -7.39334235	      3.04954018
      2.48000000	      7.65864439	      4.33605183	     -3.45116133	      0.79047637	      0.94264161	     -0.01413574	      3.36652593	     -6.71977778	      1.07358324	    -66.83091524	      7.60504184	     -8.17619816	     36.99096003	      2.72910860	      8.00009851	    -11.17131284	    -13.59469332	     14.93475622	     -9.39199582	     14.19491031	    -14.38142483	     -7.19992450	      2.97554189
      2.48500000	      7.47276709	      4.11400679	     -3.38885060	      0.79545725	      0.94310180	     -0.01459176	      4.32432970	     -6.42888586	      0.97017842	    -67.27971488	      8.17606574	     -8.91085564	     35.96233158	      2.54025905	      7.80160784	    -11.10675944	    -13.55004530	     15.30447824	     -9.20021594	     14.00124601	    -14.24377692	     -6.92453109	      2.93940703
      2.49000000	      7.45948116	      3.96823040	     -3.32485954	      0.80051588	      0.94381280	     -0.01509078	      5.05979633	     -6.25535170	      0.80572794	    -67.63012098	      8.81016619	     -9.62167196	     33.90501613	      2.09142551	      7.71925635	    -10.95755789	    -13.34773755	     15.55494405	     -9.09118440	     13.52426204	    -14.29264812	     -6.73744540	      2.85808573
      2.49500000	      7.44165945	      3.80843164	     -3.31652713	      0.80557131	      0.94451862	     -0.01551182	      5.79735864	     -6.05739103	      0.69435530	    -67.88566798	      9.25650595	    -10.47340005	     33.74723326	      1.63733854	      7.62377831	    -10.88377370	    -13.11323388	     15.69277017	     -9.14626307	     13.49966707	    -14.32782284	     -6.54287529	      2.84304766
      2.50000000	      7.39630341	      3.60641252	     -3.23895966	      0.81060444	      0.94520224	     -0.01599832	      6.52678759	     -5.81227708	      0.50210076	    -68.04189225	      9.65007257	    -11.33636181	     33.45440968	      1.22824327	      7.47495641	    -10.73955278	    -12.92086831	     15.88622791	     -9.11390753	     13.47756849	    -14.34251221	     -6.28591930	      2.77793977
      2.50500000	      7.34160427	      3.35294786	     -3.14476265	      0.81564584	      0.94586229	     -0.01642231	      7.23707606	     -5.49710508	      0.29828084	    -68.12807663	     10.24751713	    -11.89051950	     31.33292802	      0.85331802	      7.24474089	    -10.68499148	    -12.80050521	     16.23157868	     -8.79069027	     13.17882561	    -14.34590116	     -5.97498238	      2.71591351
